REM DIRINDEX 1\5,1\2\6,1\2\7,1\3\8,1\3\9,1\4\10,1\4\11,1\4\12
REM DIRNAME folder01,folder02,folder03,folder04,folder05,folder06,folder07,folder08,folder09,folder10,folder11,folder12
TITLE ""
FILE "JE_DB3000_5th_5C_24.mp3" MP3
  TRACK 01 AUDIO
    TITLE "0:"
    INDEX 01 00:00:00
  TRACK 02 AUDIO
    TITLE "6:cjc026_02721"
    INDEX 01 00:00:05
  TRACK 03 AUDIO
    TITLE "0:"
    INDEX 01 00:01:26
  TRACK 04 AUDIO
    TITLE "7:cjc026_02722"
    INDEX 01 00:01:52
  TRACK 05 AUDIO
    TITLE "0:"
    INDEX 01 00:02:42
  TRACK 06 AUDIO
    TITLE "6:cjc026_02723"
    INDEX 01 00:02:69
  TRACK 07 AUDIO
    TITLE "0:"
    INDEX 01 00:03:68
  TRACK 08 AUDIO
    TITLE "7:cjc026_02724"
    INDEX 01 00:04:21
  TRACK 09 AUDIO
    TITLE "0:"
    INDEX 01 00:05:12
  TRACK 10 AUDIO
    TITLE "6:cjc026_02725"
    INDEX 01 00:05:40
  TRACK 11 AUDIO
    TITLE "0:"
    INDEX 01 00:06:51
  TRACK 12 AUDIO
    TITLE "7:cjc026_02726"
    INDEX 01 00:07:02
  TRACK 13 AUDIO
    TITLE "0:"
    INDEX 01 00:08:64
  TRACK 14 AUDIO
    TITLE "6:cjc026_02727"
    INDEX 01 00:09:12
  TRACK 15 AUDIO
    TITLE "0:"
    INDEX 01 00:10:63
  TRACK 16 AUDIO
    TITLE "7:cjc026_02728"
    INDEX 01 00:11:15
  TRACK 17 AUDIO
    TITLE "0:"
    INDEX 01 00:12:14
  TRACK 18 AUDIO
    TITLE "6:cjc026_02729"
    INDEX 01 00:12:40
  TRACK 19 AUDIO
    TITLE "0:"
    INDEX 01 00:13:41
  TRACK 20 AUDIO
    TITLE "7:cjc026_02730"
    INDEX 01 00:13:67
  TRACK 21 AUDIO
    TITLE "0:"
    INDEX 01 00:14:56
  TRACK 22 AUDIO
    TITLE "6:cjc026_02731"
    INDEX 01 00:15:09
  TRACK 23 AUDIO
    TITLE "0:"
    INDEX 01 00:16:14
  TRACK 24 AUDIO
    TITLE "7:cjc026_02732"
    INDEX 01 00:16:42
  TRACK 25 AUDIO
    TITLE "0:"
    INDEX 01 00:17:41
  TRACK 26 AUDIO
    TITLE "6:cjc026_02733"
    INDEX 01 00:17:67
  TRACK 27 AUDIO
    TITLE "0:"
    INDEX 01 00:19:03
  TRACK 28 AUDIO
    TITLE "7:cjc026_02734"
    INDEX 01 00:19:28
  TRACK 29 AUDIO
    TITLE "0:"
    INDEX 01 00:20:30
  TRACK 30 AUDIO
    TITLE "6:cjc026_02735"
    INDEX 01 00:20:55
  TRACK 31 AUDIO
    TITLE "0:"
    INDEX 01 00:21:51
  TRACK 32 AUDIO
    TITLE "7:cjc026_02736"
    INDEX 01 00:22:03
  TRACK 33 AUDIO
    TITLE "0:"
    INDEX 01 00:22:74
  TRACK 34 AUDIO
    TITLE "6:cjc026_02737"
    INDEX 01 00:23:26
  TRACK 35 AUDIO
    TITLE "0:"
    INDEX 01 00:25:09
  TRACK 36 AUDIO
    TITLE "7:cjc026_02738"
    INDEX 01 00:25:35
  TRACK 37 AUDIO
    TITLE "0:"
    INDEX 01 00:27:63
  TRACK 38 AUDIO
    TITLE "6:cjc026_02739"
    INDEX 01 00:28:15
  TRACK 39 AUDIO
    TITLE "0:"
    INDEX 01 00:29:27
  TRACK 40 AUDIO
    TITLE "7:cjc026_02740"
    INDEX 01 00:29:52
  TRACK 41 AUDIO
    TITLE "0:"
    INDEX 01 00:32:07
  TRACK 42 AUDIO
    TITLE "6:cjc026_02741"
    INDEX 01 00:32:33
  TRACK 43 AUDIO
    TITLE "0:"
    INDEX 01 00:33:34
  TRACK 44 AUDIO
    TITLE "7:cjc026_02742"
    INDEX 01 00:33:60
  TRACK 45 AUDIO
    TITLE "0:"
    INDEX 01 00:34:63
  TRACK 46 AUDIO
    TITLE "6:cjc026_02743"
    INDEX 01 00:35:15
  TRACK 47 AUDIO
    TITLE "0:"
    INDEX 01 00:37:32
  TRACK 48 AUDIO
    TITLE "7:cjc026_02744"
    INDEX 01 00:37:57
  TRACK 49 AUDIO
    TITLE "0:"
    INDEX 01 00:38:73
  TRACK 50 AUDIO
    TITLE "6:cjc026_02745"
    INDEX 01 00:39:25
  TRACK 51 AUDIO
    TITLE "0:"
    INDEX 01 00:41:34
  TRACK 52 AUDIO
    TITLE "7:cjc026_02746"
    INDEX 01 00:41:59
  TRACK 53 AUDIO
    TITLE "0:"
    INDEX 01 00:43:19
  TRACK 54 AUDIO
    TITLE "6:cjc026_02747"
    INDEX 01 00:43:46
  TRACK 55 AUDIO
    TITLE "0:"
    INDEX 01 00:45:59
  TRACK 56 AUDIO
    TITLE "7:cjc026_02748"
    INDEX 01 00:46:09
  TRACK 57 AUDIO
    TITLE "0:"
    INDEX 01 00:47:44
  TRACK 58 AUDIO
    TITLE "6:cjc026_02749"
    INDEX 01 00:47:72
  TRACK 59 AUDIO
    TITLE "0:"
    INDEX 01 00:50:05
  TRACK 60 AUDIO
    TITLE "7:cjc026_02750"
    INDEX 01 00:50:31
  TRACK 61 AUDIO
    TITLE "0:"
    INDEX 01 00:52:02
